<svg data-v-423bf9ae="" xmlns="http://www.w3.org/2000/svg" viewBox="0 0 130.0759924807562 185" class="iconAbove"><g data-v-423bf9ae="" id="ac154216-845d-4962-9814-4551227a0dab" fill="#FFFFFF" transform="matrix(4.559270569581267,0,0,4.559270569581267,-6.337386332388789,105.91293414525795)"><path d="M2.23 14.35L2.23 10.05L5.22 10.05C6.92 10.05 7.84 8.99 7.84 7.31C7.84 5.64 6.92 4.58 5.22 4.58L1.39 4.58L1.39 14.35ZM2.23 5.32L5.22 5.32C6.34 5.32 6.94 6.02 6.94 6.97L6.94 7.64C6.94 8.61 6.34 9.31 5.22 9.31L2.23 9.31ZM8.71 14.35L9.60 14.35L11.80 11.33L11.83 11.33L13.94 14.35L14.88 14.35L12.26 10.68L14.81 7.18L13.92 7.18L11.83 10.11L11.79 10.11L9.74 7.18L8.81 7.18L11.37 10.74ZM19.21 14.35L19.21 13.65L17.70 13.65L17.70 7.88L19.32 7.88L19.32 7.18L17.70 7.18L17.70 5.18L16.97 5.18L16.97 6.64C16.97 7.04 16.86 7.18 16.46 7.18L15.65 7.18L15.65 7.88L16.90 7.88L16.90 13.47C16.90 14 17.21 14.35 17.78 14.35ZM23.14 14.35L23.14 13.65L22.04 13.65L22.04 3.99L21.24 3.99L21.24 13.48C21.24 14 21.55 14.35 22.12 14.35ZM26.92 13.50L26.87 13.50L24.67 7.18L23.83 7.18L26.49 14.56L25.80 16.45L24.60 16.45L24.60 17.15L25.41 17.15C26.14 17.15 26.38 16.97 26.60 16.37L29.92 7.18L29.11 7.18Z"></path></g><defs data-v-423bf9ae=""><linearGradient data-v-423bf9ae="" gradientTransform="rotate(25)" id="0da39263-8cf6-43ae-b083-2abf124587a3" x1="0%" y1="0%" x2="100%" y2="0%"><stop data-v-423bf9ae="" offset="0%" style="stop-color: rgb(0, 73, 255); stop-opacity: 1;"></stop><stop data-v-423bf9ae="" offset="100%" style="stop-color: rgb(123, 243, 252); stop-opacity: 1;"></stop></linearGradient></defs><g data-v-423bf9ae="" id="90153410-fe76-40d3-8803-e2caf2ad30d0" transform="matrix(1.1110777113172743,0,0,1.1110777113172743,18.323485482079597,0.4477843736285436)" stroke="none" fill="url(#0da39263-8cf6-43ae-b083-2abf124587a3)"><path d="M6.798 68.686C2.462 71.201-.56 74.184.088 75.33c.631 1.134 4.699 0 9.035-2.48 4.335-2.521 7.922-1.19 7.984 2.905.056 4.106 1.173 6.878 2.436 6.141 1.296-.721 2.319-4.71 2.285-8.884-.039-4.174 4.174-10.013 9.359-13.013 5.196-2.995 9.425-.525 9.425 5.503 0 6.018-2.967 12.616-6.598 14.65-3.626 2.033-6.576 4.95-6.548 6.458.034 1.509 3.012 1.101 6.61-.916 3.598-2.022 6.537.374 6.537 5.313 0 4.956 1.04 8.99 2.308 8.99 1.263 0 2.286-4.051 2.286-9.035 0-4.967 2.955-7.336 6.548-5.269 3.604 2.057 6.56 2.47 6.56.916 0-1.553-2.956-4.486-6.56-6.503-3.593-2.006-6.548-8.588-6.548-14.605 0-6.028 4.246-8.498 9.431-5.503 5.18 3 9.409 8.839 9.393 13.013-.028 4.174.994 8.163 2.263 8.884 1.263.737 2.353-2.034 2.419-6.141.078-4.096 3.66-5.426 7.99-2.905 4.318 2.48 8.386 3.614 9.028 2.48.648-1.146-2.357-4.129-6.699-6.644-4.335-2.497-4.938-6.279-1.341-8.369 3.599-2.112 5.453-4.459 4.112-5.229-1.341-.766-5.358.335-8.917 2.458-3.587 2.106-10.9 1.308-16.265-1.776-5.357-3.104-5.357-8.18 0-11.312 5.364-3.104 12.678-3.931 16.265-1.838 3.559 2.124 7.576 3.224 8.917 2.456 1.341-.754-.514-3.087-4.112-5.21-3.598-2.095-2.994-5.875 1.341-8.375 4.342-2.498 7.348-5.481 6.699-6.61-.643-1.146-4.71-.017-9.028 2.483-4.33 2.5-7.912 1.146-7.99-2.98-.066-4.143-1.156-6.926-2.419-6.174-1.269.766-2.291 4.758-2.263 8.915.017 4.14-4.213 9.984-9.393 12.996-5.185 3.014-9.431.528-9.431-5.512S48.162 22.003 51.755 20c3.604-2.003 6.56-4.908 6.56-6.462 0-1.564-2.956-1.128-6.56.95-3.593 2.062-6.548-.333-6.548-5.361C45.205 4.098 44.182 0 42.919 0c-1.268 0-2.308 4.067-2.308 9.051 0 4.97-2.938 7.412-6.537 5.406-3.598-2.003-6.576-2.422-6.61-.933-.028 1.478 2.922 4.369 6.548 6.414 3.631 2.017 6.598 8.629 6.598 14.669s-4.229 8.526-9.425 5.512c-5.185-3.012-9.398-8.856-9.359-12.996.034-4.157-.989-8.149-2.285-8.915-1.263-.751-2.38 2.031-2.436 6.174-.062 4.126-3.648 5.481-7.984 2.98S.718 23.733.086 24.879c-.648 1.128 2.375 4.112 6.71 6.61 4.341 2.5 4.973 6.28 1.391 8.375-3.57 2.123-5.392 4.456-4.067 5.21 1.324.769 5.313-.332 8.855-2.456 3.52-2.092 10.812-1.265 16.203 1.838 5.38 3.132 5.38 8.208 0 11.312-5.392 3.084-12.683 3.883-16.203 1.776-3.542-2.123-7.531-3.224-8.855-2.458-1.324.771.497 3.117 4.067 5.229 3.584 2.092 2.952 5.874-1.389 8.371"></path></g></svg>