<svg data-v-423bf9ae="" xmlns="http://www.w3.org/2000/svg" viewBox="0 0 241.85392138723535 60" class="font"><g data-v-423bf9ae="" id="5efb5488-d9dc-459c-9f6d-175ec1ef9908" fill="black" transform="matrix(5.61797736755893,0,0,5.61797736755893,-6.067416381014382,-42.02247033965806)"><path d="M6.51 16.95L7.66 17.68L7.43 18.16L5.11 17.39L5.11 17.14L4.33 17.39Q2.86 17.39 2.20 17.06Q1.54 16.73 1.31 15.80Q1.08 14.87 1.08 12.81L1.08 12.81Q1.08 10.75 1.31 9.82Q1.54 8.89 2.20 8.55Q2.86 8.22 4.33 8.22L4.33 8.22Q5.77 8.22 6.43 8.55Q7.08 8.89 7.32 9.83Q7.56 10.77 7.56 12.81L7.56 12.81Q7.56 14.15 7.46 14.97Q7.36 15.79 7.14 16.26Q6.92 16.73 6.51 16.95L6.51 16.95ZM2.07 16.62L5.39 16.62Q6.05 16.62 6.31 16.37Q6.58 16.13 6.58 15.50L6.58 15.50L6.58 8.99L3.25 8.99Q2.59 8.99 2.33 9.23Q2.07 9.48 2.07 10.11L2.07 10.11L2.07 16.62ZM12.45 10.07Q13.36 10.07 13.86 10.23Q14.36 10.40 14.57 10.78Q14.78 11.16 14.78 11.84L14.78 11.84L14.78 17.18L14.41 17.18L14.14 16.48Q13.65 16.90 13.04 17.09Q12.43 17.29 11.59 17.29L11.59 17.29Q10.47 17.29 10.02 16.84Q9.56 16.39 9.56 15.29L9.56 15.29Q9.56 14.21 9.81 13.78Q10.07 13.36 10.88 13.22Q11.69 13.09 13.75 13.09L13.75 13.09L13.89 13.09L13.89 11.03Q13.24 10.84 12.22 10.84L12.22 10.84Q11.13 10.84 10.00 11.17L10.00 11.17L9.87 10.46Q10.28 10.29 11.03 10.18Q11.77 10.07 12.45 10.07L12.45 10.07ZM12.71 16.51Q13.40 16.51 13.64 16.32Q13.89 16.13 13.89 15.60L13.89 15.60L13.89 13.83L11.58 13.83Q10.88 13.83 10.63 14.02Q10.37 14.21 10.37 14.73L10.37 14.73L10.37 16.51L12.71 16.51ZM17.64 17.18L17.64 10.18L18.02 10.18L18.28 10.88Q18.79 10.46 19.38 10.26Q19.98 10.07 20.82 10.07L20.82 10.07Q22.76 10.07 22.76 11.10L22.76 11.10L22.76 17.18L21.85 17.18L21.85 10.81L19.96 10.81Q19.39 10.81 19.10 10.89Q18.80 10.98 18.68 11.17Q18.55 11.37 18.55 11.76L18.55 11.76L18.55 17.18L17.64 17.18ZM28.32 10.85L26.98 10.85L26.98 16.48Q27.86 16.53 28.03 16.53L28.03 16.53L27.96 17.16Q27.26 17.29 26.84 17.29L26.84 17.29Q26.07 17.29 26.07 16.41L26.07 16.41L26.07 10.85L24.99 10.85L24.99 10.18L26.07 10.18L26.07 8.55L26.98 8.32L26.98 10.18L28.32 10.18L28.32 10.85ZM29.57 13.34Q29.57 13.05 29.69 12.98Q29.81 12.91 30.20 12.91L30.20 12.91L33.46 12.91L33.46 13.31Q33.46 13.61 33.34 13.68Q33.22 13.75 32.84 13.75L32.84 13.75L29.57 13.75L29.57 13.34ZM35.25 17.18L35.25 17.18ZM35.42 10.19L36.33 10.02L36.33 17.18L35.42 17.18L35.42 10.19ZM35.91 8.74Q35.52 8.74 35.38 8.61Q35.25 8.48 35.25 8.12L35.25 8.12Q35.25 7.74 35.38 7.61Q35.52 7.48 35.91 7.48L35.91 7.48Q36.27 7.48 36.40 7.61Q36.53 7.74 36.53 8.12L36.53 8.12Q36.53 8.48 36.41 8.61Q36.29 8.74 35.91 8.74L35.91 8.74ZM44.13 17.18L43.19 17.18L41.15 14.21L39.21 17.18L38.26 17.18L40.68 13.55L38.36 10.18L39.30 10.18L41.23 12.99L43.06 10.18L44.02 10.18L41.69 13.64L44.13 17.18Z"></path></g></svg>