<svg data-v-423bf9ae="" xmlns="http://www.w3.org/2000/svg" viewBox="0 0 293.1498079236034 60" class="font"><g data-v-423bf9ae="" id="52a7c4ad-8f94-4e5e-af20-3968bb1bc65e" fill="white" transform="matrix(6.116207094869291,0,0,6.116207094869291,-8.929664019140802,-45.749228709442534)"><path d="M2.37 13.34L2.37 17.18L1.46 17.18L1.46 8.43L5.88 8.43L5.78 9.18L2.37 9.18L2.37 12.56L5.32 12.56L5.32 13.34L2.37 13.34ZM6.30 10.18L7.21 10.18L9.17 16.42L9.31 16.42L11.27 10.18L12.18 10.18L9.94 17.18L8.54 17.18L6.30 10.18ZM19.12 13.68Q19.12 15.29 18.94 16.02Q18.76 16.76 18.25 17.02Q17.74 17.29 16.60 17.29L16.60 17.29L16.59 17.29Q15.86 17.29 15.46 17.23L15.46 17.23Q14.70 17.16 13.73 16.90L13.73 16.90L13.73 7.80L14.64 7.64L14.64 10.36Q14.94 10.14 15.44 10.05Q15.93 9.97 16.77 9.97L16.77 9.97Q17.81 9.97 18.29 10.25Q18.77 10.53 18.95 11.29Q19.12 12.05 19.12 13.68L19.12 13.68ZM18.20 16.24L18.20 10.78L15.32 10.78Q14.91 10.78 14.78 10.84Q14.64 10.91 14.64 11.12L14.64 11.12L14.64 16.48L17.51 16.48Q17.91 16.48 18.05 16.43Q18.20 16.38 18.20 16.24L18.20 16.24ZM21.97 10.18L22.36 11.35Q23.06 10.74 23.49 10.42Q23.93 10.11 24.23 9.97L24.23 9.97L24.36 10.86Q23.30 11.24 22.48 11.89L22.48 11.89L22.48 17.18L21.57 17.18L21.57 10.18L21.97 10.18ZM25.90 17.18L25.90 17.18ZM26.07 10.19L26.98 10.02L26.98 17.18L26.07 17.18L26.07 10.19ZM26.56 8.74Q26.17 8.74 26.03 8.61Q25.90 8.48 25.90 8.12L25.90 8.12Q25.90 7.74 26.03 7.61Q26.17 7.48 26.56 7.48L26.56 7.48Q26.92 7.48 27.05 7.61Q27.17 7.74 27.17 8.12L27.17 8.12Q27.17 8.48 27.06 8.61Q26.94 8.74 26.56 8.74L26.56 8.74ZM34.78 17.18L33.84 17.18L31.79 14.21L29.86 17.18L28.91 17.18L31.33 13.55L29.01 10.18L29.95 10.18L31.88 12.99L33.71 10.18L34.66 10.18L32.34 13.64L34.78 17.18ZM39.02 17.29Q37.77 17.29 37.20 17.02Q36.62 16.74 36.42 16.01Q36.22 15.27 36.22 13.68L36.22 13.68Q36.22 12.08 36.42 11.35Q36.62 10.61 37.20 10.34Q37.77 10.07 39.02 10.07L39.02 10.07Q40.28 10.07 40.85 10.33Q41.43 10.60 41.62 11.33Q41.82 12.07 41.82 13.68L41.82 13.68Q41.82 15.27 41.62 16.01Q41.41 16.74 40.84 17.02Q40.26 17.29 39.02 17.29L39.02 17.29ZM37.14 16.48L40.21 16.48Q40.64 16.48 40.78 16.41Q40.92 16.35 40.92 16.14L40.92 16.14L40.92 10.88L37.86 10.88Q37.42 10.88 37.28 10.94Q37.14 11.00 37.14 11.21L37.14 11.21L37.14 16.48ZM44.27 17.18L44.27 10.18L44.65 10.18L44.91 10.88Q45.42 10.46 46.01 10.26Q46.61 10.07 47.45 10.07L47.45 10.07Q49.39 10.07 49.39 11.10L49.39 11.10L49.39 17.18L48.48 17.18L48.48 10.81L46.59 10.81Q46.02 10.81 45.72 10.89Q45.43 10.98 45.30 11.17Q45.18 11.37 45.18 11.76L45.18 11.76L45.18 17.18L44.27 17.18Z"></path></g></svg>